<?xml version="1.0" standalone="no"?>
<!DOCTYPE svg PUBLIC "-//W3C//DTD SVG 20010904//EN"
 "http://www.w3.org/TR/2001/REC-SVG-20010904/DTD/svg10.dtd">
<svg version="1.0" xmlns="http://www.w3.org/2000/svg"
 width="1000.000000pt" height="1000.000000pt" viewBox="0 0 1000.000000 1000.000000"
 preserveAspectRatio="xMidYMid meet">

<g transform="translate(0.000000,1000.000000) scale(0.100000,-0.100000)"
fill="#000000" stroke="none">
<path d="M4495 9584 c-328 -44 -562 -141 -744 -310 l-60 -55 -53 17 c-80 25
-304 30 -393 10 -205 -48 -400 -206 -506 -409 l-34 -66 -90 5 c-112 7 -210
-12 -314 -61 -57 -27 -93 -55 -156 -118 -118 -119 -175 -244 -175 -388 0 -86
19 -149 91 -294 138 -280 386 -540 690 -723 154 -92 125 -85 399 -86 216 -1
258 -4 350 -24 215 -47 434 -137 594 -245 39 -25 71 -45 73 -43 2 1 -19 50
-47 108 -247 516 -265 1175 -49 1721 132 333 349 640 605 857 159 135 156 120
29 119 -61 -1 -155 -7 -210 -15z"/>
<path d="M4914 9544 c-295 -211 -519 -471 -675 -784 -96 -192 -154 -370 -194
-590 -23 -123 -31 -454 -16 -587 45 -380 185 -729 414 -1037 73 -96 278 -310
288 -299 3 5 12 26 19 47 17 52 94 128 152 150 l47 18 4 1352 c4 1277 8 1440
33 1559 3 15 9 27 14 27 5 0 11 -12 14 -27 25 -114 29 -299 33 -1564 l4 -1347
47 -18 c58 -22 135 -98 152 -150 7 -21 16 -42 19 -47 10 -11 215 203 288 299
229 308 369 657 414 1037 15 130 7 464 -15 582 -106 577 -400 1043 -870 1379
-43 31 -82 56 -86 56 -4 0 -43 -25 -86 -56z"/>
<path d="M5205 9583 c11 -11 65 -57 119 -103 470 -399 756 -1025 756 -1656 0
-322 -72 -655 -200 -922 -28 -58 -49 -107 -47 -108 2 -2 34 18 73 43 160 108
379 198 594 245 92 20 134 23 350 24 274 1 245 -6 399 86 304 183 552 443 690
723 72 145 91 208 91 294 0 144 -57 269 -175 388 -63 63 -99 91 -156 118 -104
49 -202 68 -314 61 l-90 -5 -34 66 c-106 203 -301 361 -506 409 -89 20 -313
15 -393 -10 l-53 -17 -60 55 c-214 198 -527 308 -919 323 -144 5 -145 5 -125
-14z"/>
<path d="M1662 8144 c-93 -46 -152 -150 -152 -268 l0 -64 -59 -4 c-92 -7 -169
-73 -206 -179 -16 -44 -19 -131 -6 -164 7 -18 2 -21 -52 -32 -122 -25 -181
-98 -181 -224 0 -118 60 -190 284 -341 158 -107 297 -167 539 -234 l123 -34
82 76 c172 161 419 300 654 369 l73 21 -107 69 c-369 237 -615 532 -770 925
-21 52 -42 98 -48 102 -26 18 -122 8 -174 -18z"/>
<path d="M8164 8162 c-6 -4 -27 -50 -48 -102 -155 -393 -401 -688 -770 -925
l-107 -69 73 -21 c235 -69 482 -208 654 -369 l82 -76 123 34 c242 67 381 127
539 234 224 151 284 223 284 341 0 126 -59 199 -181 224 -54 11 -59 14 -52 32
13 33 10 120 -6 164 -37 106 -114 172 -206 179 l-59 4 0 57 c0 171 -112 301
-259 301 -31 0 -61 -4 -67 -8z"/>
<path d="M3006 7009 c-446 -47 -860 -284 -1127 -645 -56 -77 -139 -216 -139
-234 1 -29 250 -206 425 -302 584 -319 1282 -409 1920 -247 101 26 253 75 313
100 l45 20 -20 22 c-32 34 -56 87 -68 147 l-11 55 -230 77 c-543 183 -926 238
-1529 218 -143 -5 -333 -16 -422 -25 -89 -9 -184 -15 -210 -13 l-48 3 55 21
c30 12 107 33 170 48 285 63 541 83 859 67 464 -24 872 -100 1262 -237 l131
-46 31 30 c42 39 108 72 147 72 16 0 30 4 30 8 0 13 -104 177 -153 242 -57 76
-177 200 -256 264 -332 270 -759 399 -1175 355z"/>
<path d="M6674 7010 c-311 -33 -612 -158 -855 -356 -79 -64 -199 -188 -256
-264 -49 -65 -153 -229 -153 -242 0 -4 14 -8 30 -8 39 0 105 -33 147 -72 l31
-30 131 46 c601 211 1355 294 1906 210 138 -20 319 -62 385 -88 l55 -21 -48
-3 c-26 -2 -121 4 -210 13 -89 9 -279 20 -422 25 -603 20 -986 -35 -1529 -218
l-230 -77 -11 -55 c-12 -60 -36 -113 -68 -147 l-20 -22 45 -20 c60 -25 212
-74 313 -100 638 -162 1336 -72 1920 247 170 93 424 273 425 300 0 17 -70 138
-126 217 -327 462 -902 724 -1460 665z"/>
<path d="M875 6981 c-83 -36 -120 -186 -75 -303 11 -29 20 -54 20 -54 0 -1
-21 -4 -46 -7 -119 -13 -172 -174 -100 -304 14 -25 26 -47 26 -48 0 -1 -19 -5
-42 -9 -80 -13 -138 -112 -124 -209 8 -55 55 -131 97 -156 55 -33 176 -46 444
-46 222 0 325 7 463 31 18 4 32 12 32 20 0 8 18 69 41 137 49 148 129 306 204
406 31 40 55 75 53 76 -2 1 -46 15 -98 30 -288 82 -580 233 -726 377 -53 52
-68 61 -105 64 -24 2 -53 0 -64 -5z"/>
<path d="M9030 6983 c-8 -3 -42 -32 -76 -64 -153 -145 -439 -293 -724 -374
-52 -15 -96 -29 -98 -30 -2 -1 22 -36 53 -76 75 -100 155 -258 204 -406 23
-68 41 -129 41 -137 0 -44 619 -72 827 -37 45 7 95 22 112 32 42 25 89 101 97
156 14 97 -44 196 -124 209 -23 4 -42 8 -42 9 0 1 12 23 26 48 72 130 19 291
-100 304 -25 3 -46 6 -46 7 0 0 9 25 20 54 37 97 19 220 -40 277 -29 27 -96
42 -130 28z"/>
<path d="M4915 6337 c-26 -14 -48 -37 -62 -67 -21 -39 -23 -59 -23 -182 0 -76
-2 -138 -4 -138 -3 0 -46 20 -97 45 -67 33 -105 45 -137 45 -83 0 -142 -61
-142 -147 0 -73 23 -94 210 -188 l170 -86 0 -355 0 -354 170 0 170 0 0 355 0
355 170 85 c182 91 199 106 207 179 10 87 -51 156 -139 156 -32 0 -70 -12
-137 -45 -51 -25 -94 -45 -97 -45 -2 0 -4 62 -4 138 0 123 -2 143 -22 182 -29
56 -84 90 -148 90 -28 0 -60 -9 -85 -23z"/>
<path d="M1666 5863 c-87 -360 -110 -568 -111 -978 0 -413 26 -637 115 -1000
272 -1109 989 -2058 1990 -2632 l85 -49 17 -68 c54 -205 181 -469 267 -555
132 -131 270 -151 397 -56 l31 24 52 -26 c226 -112 461 113 361 346 -13 30
-40 66 -63 86 -40 34 -40 35 -29 74 41 135 -25 274 -161 341 -145 71 -418 79
-681 20 -48 -10 -50 -10 -120 31 -1085 640 -1834 1794 -1970 3034 -49 446 -16
955 89 1366 6 24 1 31 -42 60 -26 18 -76 54 -110 81 -35 26 -67 48 -72 48 -5
0 -25 -66 -45 -147z"/>
<path d="M8261 5996 c-6 -8 -55 -44 -107 -81 -88 -62 -95 -70 -89 -94 105
-411 138 -921 89 -1366 -136 -1240 -885 -2394 -1970 -3034 -70 -41 -72 -41
-120 -31 -263 59 -536 51 -681 -20 -136 -67 -202 -206 -161 -341 11 -39 11
-40 -29 -74 -108 -92 -115 -265 -16 -375 82 -91 201 -113 314 -57 l52 26 31
-24 c127 -95 265 -75 397 56 86 86 213 350 267 555 l17 68 85 49 c822 472
1464 1207 1812 2077 137 342 225 689 275 1090 25 204 25 724 0 925 -25 198
-52 347 -93 518 -36 146 -46 165 -73 133z"/>
<path d="M540 5760 c-61 -32 -92 -73 -97 -127 -7 -70 12 -128 58 -178 l39 -43
-24 -6 c-68 -17 -124 -116 -110 -196 8 -47 47 -113 84 -142 l31 -24 -38 -25
c-48 -31 -73 -75 -80 -141 -7 -74 12 -135 56 -179 46 -46 91 -59 210 -59 234
0 514 75 712 190 l66 39 6 178 c7 202 28 399 62 588 13 71 22 131 20 133 -2 3
-50 -2 -107 -9 -158 -21 -608 -19 -719 4 -106 21 -125 21 -169 -3z"/>
<path d="M2021 5743 c-39 -151 -77 -414 -92 -651 l-12 -183 49 -51 c68 -70
185 -156 279 -205 138 -71 368 -143 459 -143 118 0 185 82 156 190 -12 44 -69
115 -101 125 -28 9 -24 17 20 42 22 12 45 37 55 57 20 42 21 118 2 155 -17 32
-80 91 -99 91 -7 1 2 8 18 17 72 38 105 88 105 160 0 54 -24 101 -61 120 -13
7 -78 29 -144 48 -167 50 -327 115 -483 196 -73 38 -135 69 -137 69 -2 0 -9
-17 -14 -37z"/>
<path d="M7835 5715 c-142 -76 -324 -150 -490 -200 -66 -19 -131 -41 -144 -48
-37 -19 -61 -66 -61 -120 0 -72 33 -122 105 -160 17 -9 25 -16 18 -17 -19 0
-82 -59 -99 -91 -19 -37 -18 -113 2 -155 10 -20 33 -45 55 -57 44 -25 48 -33
20 -42 -32 -10 -89 -81 -101 -125 -29 -108 38 -190 156 -190 91 0 321 72 459
143 94 49 211 135 279 205 l49 51 -12 183 c-19 286 -82 690 -109 687 -4 0 -61
-29 -127 -64z"/>
<path d="M9285 5762 c-94 -21 -564 -23 -713 -3 -57 7 -105 12 -107 9 -2 -2 7
-62 20 -133 33 -182 55 -391 62 -593 l6 -173 66 -39 c141 -82 335 -148 514
-174 122 -19 275 -21 332 -5 78 22 135 106 135 199 0 80 -44 161 -99 181 l-25
10 32 25 c38 31 77 96 86 144 14 80 -42 179 -110 196 l-24 6 39 43 c46 50 65
108 58 178 -5 54 -37 96 -99 128 -43 22 -77 22 -173 1z"/>
<path d="M1356 4703 c-197 -99 -405 -151 -641 -159 -179 -7 -227 -20 -258 -73
-47 -79 7 -216 106 -267 l28 -15 -35 -32 c-91 -86 -57 -231 65 -274 l49 -18
-29 -30 c-40 -43 -53 -70 -53 -120 0 -90 67 -160 176 -185 76 -17 310 51 499
146 81 41 214 126 266 171 l35 30 -32 164 c-39 198 -57 333 -72 539 -6 85 -12
158 -13 161 -1 4 -42 -13 -91 -38z"/>
<path d="M1927 4693 c8 -131 26 -295 44 -408 40 -245 108 -509 137 -532 43
-33 200 -106 293 -137 126 -42 257 -65 406 -73 172 -9 235 24 235 122 0 78
-50 140 -123 151 l-37 6 33 30 c40 34 59 86 50 129 -10 43 -58 94 -107 114
l-42 16 32 26 c63 48 80 128 42 190 -26 44 -44 51 -178 74 -299 50 -539 149
-718 297 -35 28 -65 52 -67 52 -2 0 -2 -26 0 -57z"/>
<path d="M8004 4697 c-172 -144 -417 -246 -716 -296 -134 -23 -152 -30 -178
-74 -38 -62 -21 -142 42 -190 l32 -26 -42 -16 c-49 -20 -97 -71 -107 -114 -9
-43 10 -95 50 -129 l33 -30 -37 -6 c-73 -11 -123 -73 -123 -151 0 -98 63 -131
235 -122 149 8 280 31 406 73 93 31 250 104 293 137 29 23 97 287 137 532 27
169 54 466 42 464 -3 0 -34 -24 -67 -52z"/>
<path d="M8550 4722 c0 -138 -38 -456 -82 -681 l-32 -164 35 -29 c148 -127
378 -240 606 -299 98 -25 120 -27 159 -19 109 25 176 95 176 185 0 50 -13 77
-53 120 l-29 30 49 18 c122 43 156 188 65 274 l-35 32 28 15 c99 51 153 188
106 267 -31 53 -79 66 -258 73 -236 8 -443 60 -644 160 l-91 46 0 -28z"/>
<path d="M1529 3719 c-170 -126 -433 -241 -661 -288 -167 -35 -169 -240 -3
-317 27 -13 58 -24 68 -24 16 0 15 -4 -9 -35 -81 -107 1 -256 153 -281 l39 -6
-23 -46 c-31 -60 -29 -99 6 -154 55 -87 170 -114 267 -62 148 78 416 311 498
432 l29 42 -55 118 c-73 154 -157 376 -204 535 -21 70 -41 127 -44 127 -4 0
-31 -18 -61 -41z"/>
<path d="M8366 3633 c-47 -159 -131 -381 -204 -535 l-55 -118 29 -42 c82 -121
350 -354 498 -432 97 -52 212 -25 267 62 35 55 37 94 6 154 l-23 46 39 6 c152
25 234 174 153 281 -24 31 -25 35 -9 35 10 0 41 11 68 24 120 56 160 184 84
271 -23 26 -43 36 -87 46 -228 47 -491 162 -661 288 -30 23 -57 41 -61 41 -3
0 -23 -57 -44 -127z"/>
<path d="M2166 3544 c81 -215 220 -499 336 -687 83 -134 76 -130 263 -164 97
-19 447 -25 518 -10 47 10 104 59 112 96 16 76 -70 161 -163 161 -23 0 -24 1
-9 18 29 32 49 93 42 129 -9 50 -59 101 -111 114 l-44 11 25 30 c45 53 27 151
-33 182 -19 10 -84 15 -227 19 -269 7 -442 41 -630 123 -44 19 -86 38 -92 41
-8 3 -3 -21 13 -63z"/>
<path d="M7797 3584 c-26 -14 -94 -40 -150 -59 -185 -61 -345 -85 -570 -85
-113 0 -155 -4 -177 -15 -62 -32 -80 -129 -35 -183 l25 -30 -44 -11 c-52 -13
-102 -64 -111 -114 -7 -36 13 -97 42 -129 15 -17 14 -18 -9 -18 -93 0 -179
-85 -163 -161 8 -37 65 -86 112 -96 71 -15 421 -9 518 10 187 34 180 30 263
164 81 131 208 378 270 523 58 137 92 230 84 230 -4 -1 -29 -12 -55 -26z"/>
<path d="M1930 2861 c0 -18 -205 -224 -285 -286 -44 -34 -126 -92 -182 -129
-57 -36 -109 -76 -117 -89 -37 -58 -25 -130 32 -191 36 -38 81 -56 143 -56 45
0 50 -2 43 -17 -5 -10 -9 -46 -9 -81 0 -62 1 -64 46 -107 53 -50 101 -64 162
-48 l38 11 -7 -42 c-8 -46 -8 -49 -6 -90 3 -43 68 -101 130 -116 65 -15 117
-1 159 42 77 81 227 348 282 499 l20 57 -61 78 c-78 102 -250 363 -317 482
-47 82 -71 110 -71 83z"/>
<path d="M7999 2778 c-67 -119 -239 -380 -317 -482 l-61 -78 20 -57 c55 -151
205 -418 282 -499 64 -67 173 -64 248 8 44 42 50 71 35 156 l-7 35 49 -7 c66
-8 109 7 158 57 37 38 39 43 39 102 0 34 -4 70 -9 80 -7 15 -2 17 43 17 62 0
107 18 143 56 57 61 69 133 32 191 -8 13 -60 53 -117 89 -56 37 -138 95 -182
129 -81 63 -285 267 -285 285 0 28 -24 1 -71 -82z"/>
<path d="M2678 2594 c51 -93 398 -479 564 -626 l68 -60 148 0 c149 0 315 21
379 47 90 38 78 150 -22 202 -16 9 -55 16 -87 17 l-56 1 20 33 c60 98 -12 204
-129 188 l-42 -5 25 37 c33 47 29 111 -9 149 -27 28 -77 32 -177 13 -109 -20
-405 -24 -537 -6 -67 9 -129 19 -138 23 -15 5 -16 3 -7 -13z"/>
<path d="M6509 2602 c-39 -5 -71 -44 -76 -94 -4 -35 0 -50 21 -80 l25 -37 -42
5 c-117 16 -189 -90 -129 -188 l20 -33 -56 -1 c-32 -1 -71 -8 -87 -17 -100
-52 -112 -164 -22 -202 64 -26 230 -47 379 -47 l148 0 68 60 c120 107 334 334
445 472 122 151 139 177 112 167 -9 -4 -71 -14 -138 -23 -137 -18 -417 -14
-562 9 -44 6 -92 11 -106 9z"/>
<path d="M2400 2003 c-68 -145 -144 -276 -218 -372 -52 -68 -56 -78 -60 -135
-2 -47 1 -68 16 -92 36 -56 118 -79 222 -61 l45 8 -3 -53 c-7 -125 93 -189
223 -143 55 20 55 20 55 -27 1 -149 144 -214 255 -117 25 23 40 49 55 97 32
104 50 226 50 341 l0 106 -93 77 c-114 96 -286 262 -403 391 l-89 97 -55 -117z"/>
<path d="M7422 1988 c-112 -124 -304 -306 -414 -395 l-48 -38 0 -106 c0 -116
18 -237 50 -341 39 -126 142 -176 249 -118 30 16 61 85 61 138 0 47 0 47 55
27 130 -46 230 18 223 143 l-3 53 45 -8 c104 -18 186 5 222 61 15 24 18 45 16
91 -3 55 -8 67 -51 122 -73 95 -144 215 -217 366 l-67 137 -121 -132z"/>
<path d="M3930 1874 c-90 -31 -278 -64 -368 -65 -129 -2 -129 -5 -16 -88 55
-41 156 -109 225 -153 102 -66 129 -79 154 -75 17 3 93 13 170 22 173 21 235
35 249 58 24 37 -50 97 -121 97 l-43 0 15 24 c13 19 14 29 6 45 -17 31 -52 51
-90 51 -27 0 -32 3 -23 12 19 19 14 56 -10 72 -40 26 -71 26 -148 0z"/>
<path d="M5939 1882 c-37 -18 -49 -52 -29 -78 11 -12 7 -14 -22 -14 -37 0 -72
-20 -89 -51 -8 -16 -7 -26 6 -45 l15 -24 -43 0 c-71 0 -145 -60 -121 -97 14
-23 76 -37 249 -58 77 -9 154 -19 170 -22 25 -4 52 9 154 75 69 44 170 112
225 153 113 83 113 86 -16 88 -82 1 -277 34 -355 60 -94 30 -107 32 -144 13z"/>
<path d="M3137 1363 c-6 -112 -27 -223 -62 -326 -33 -97 -33 -166 1 -206 43
-51 134 -51 206 0 34 25 38 24 38 -9 0 -48 41 -115 83 -135 46 -23 85 -13 134
35 l32 31 6 -36 c11 -57 41 -97 91 -119 55 -24 101 -18 133 16 33 35 29 78
-19 181 -24 50 -62 148 -85 218 l-42 129 -78 44 c-91 52 -253 157 -347 225
-37 27 -72 49 -76 49 -5 0 -12 -44 -15 -97z"/>
<path d="M6825 1451 c-8 -15 -310 -214 -399 -265 l-79 -44 -42 -129 c-23 -70
-61 -168 -85 -218 -48 -103 -52 -146 -19 -181 68 -73 202 -11 224 103 l6 36
32 -31 c49 -48 88 -58 134 -35 42 20 83 87 83 135 0 33 4 34 38 9 72 -51 163
-51 206 0 34 40 34 109 1 206 -35 103 -56 214 -62 326 -4 70 -10 97 -19 97 -7
0 -15 -4 -19 -9z"/>
</g>
</svg>
